<?xml version="1.0" encoding="utf-8"?>
<!-- Generator: Adobe Illustrator 25.4.1, SVG Export Plug-In . SVG Version: 6.00 Build 0)  -->
<svg version="1.1" id="Layer_1" xmlns="http://www.w3.org/2000/svg" xmlns:xlink="http://www.w3.org/1999/xlink" x="0px" y="0px"
	 viewBox="0 0 256 256" style="enable-background:new 0 0 256 256;" xml:space="preserve">
<style type="text/css">
	.st0{fill:#1E5B8A;}
	.st1{fill:#FFFFFF;}
</style>
<g>
	
		<image style="overflow:visible;" width="256" height="256" xlink:href="128x128@2x.png"  transform="matrix(0.986 0 0 0.986 2.5338 1.7927)">
	</image>
	<path class="st0" d="M202.5,253.1H51.7c-28,0-50.6-22.7-50.6-50.6V52.4c0-28,22.7-50.6,50.6-50.6h150.9c28,0,50.6,22.7,50.6,50.6
		v150.1C253.2,230.4,230.5,253.1,202.5,253.1z"/>
	<g>
		<path class="st1" d="M106.8,127.5c0,12.1,9.8,21.9,21.9,21.9s21.9-9.8,21.9-21.9c0-9.7-6.3-17.9-15-20.8v21c0,3.3-2.7,6-6,6h-1.5
			c-3.3,0-6-2.7-6-6v-21C113.2,109.4,106.8,117.7,106.8,127.5z"/>
		<path class="st1" d="M142,36c0.1,0.6,0.2,1.3,0.2,1.9v20.4c0.4,2.2,2,5.7,7.9,8.3c25.9,8.3,44.6,32.5,44.6,60.9
			c0,35.4-28.9,64-64.5,64s-64.5-28.7-64.5-64c0-27.3,17.2-50.6,41.5-59.8c2.5-1.1,9.2-4.6,10-12V37.9c0-0.7,0.1-1.5,0.2-2.2
			c-46.8,5.5-83,44.6-83,91.9c0,51.1,42.2,92.6,94.4,92.6s94.4-41.5,94.4-92.6C223.1,81,187.8,42.3,142,36z"/>
		<path class="st1" d="M136,78c0.1,0.3,0.1,0.7,0.1,1v11.1c0.2,1.2,1.1,3.1,4.3,4.5c14.1,4.5,24.3,17.6,24.3,33.1
			c0,19.2-15.7,34.8-35.1,34.8s-35.1-15.6-35.1-34.8c0-14.8,9.4-27.5,22.6-32.5c1.3-0.6,5-2.5,5.4-6.5V79c0-0.4,0-0.8,0.1-1.2
			c-25.4,3-45.1,24.2-45.1,50c0,27.8,23,50.3,51.3,50.3c28.3,0,51.3-22.5,51.3-50.3C180,102.4,160.9,81.4,136,78z"/>
	</g>
</g>
</svg>
