<?xml version="1.0" encoding="utf-8"?>
<!-- Generator: Adobe Illustrator 25.4.1, SVG Export Plug-In . SVG Version: 6.00 Build 0)  -->
<svg version="1.1" id="Capa_1" xmlns="http://www.w3.org/2000/svg" xmlns:xlink="http://www.w3.org/1999/xlink" x="0px" y="0px"
	 viewBox="0 0 1280 362" style="enable-background:new 0 0 1280 362;" xml:space="preserve">
<style type="text/css">
	.st0{fill:none;}
	.st1{fill:#FFFFFF;}
	.st2{font-family:'Righteous-Regular';}
	.st3{font-size:52px;}
</style>
<path d="M-0.8-3.1v368.1h1281.6V-3.1H-0.8z M635.3,173.6h1.6c3.5,0,6.2-2.8,6.2-6.2v-21.8c9.1,3,15.6,11.6,15.6,21.6
	c0,12.6-10.2,22.8-22.8,22.8s-22.8-10.2-22.8-22.8c0-10.2,6.7-18.8,15.8-21.7v21.9C629,170.8,631.8,173.6,635.3,173.6z M629.5,116.9
	v10c-0.5,4.2-4.2,6.2-5.6,6.8c-13.7,5.2-23.5,18.4-23.5,33.8c0,20,16.3,36.2,36.5,36.2c20.1,0,36.5-16.2,36.5-36.2
	c0-16.1-10.6-29.7-25.2-34.4c-3.4-1.5-4.3-3.4-4.5-4.7v-11.5c0-0.4,0-0.7-0.1-1.1c25.9,3.6,45.8,25.4,45.8,51.8
	c0,28.9-23.9,52.3-53.3,52.3c-29.4,0-53.3-23.4-53.3-52.3c0-26.8,20.5-48.8,46.9-51.9C629.5,116.1,629.5,116.5,629.5,116.9z
	 M636,263.7c-54.2,0-98.1-43.1-98.1-96.3c0-49.3,37.7-89.9,86.3-95.6c-0.1,0.7-0.2,1.5-0.2,2.2v18.4c-0.9,7.7-7.8,11.4-10.4,12.5
	c-25.2,9.6-43.2,33.8-43.2,62.2c0,36.8,30,66.6,67.1,66.6s67.1-29.8,67.1-66.6c0-29.6-19.5-54.7-46.4-63.3c-6.2-2.7-7.9-6.3-8.3-8.6
	V74.1c0-0.7-0.1-1.3-0.2-2c47.6,6.6,84.3,46.7,84.3,95.3C734.1,220.6,690.1,263.7,636,263.7z"/>
<rect x="528.1" y="276.5" class="st0" width="223.7" height="44.9"/>
<text transform="matrix(1 0 0 1 528.1309 314.5035)" class="st1 st2 st3">Remotely</text>
</svg>
